<?xml version="1.0" encoding="UTF-8"?>
<svg version="1.1" xmlns="http://www.w3.org/2000/svg" width="689" height="658">
<path d="M0 0 C227.37 0 454.74 0 689 0 C689 217.14 689 434.28 689 658 C461.63 658 234.26 658 0 658 C0 440.86 0 223.72 0 0 Z " fill="#000000" transform="translate(0,0)"/>
<path d="M0 0 C2.296875 1.94140625 2.296875 1.94140625 4 4 C4.825 4.45375 5.65 4.9075 6.5 5.375 C11.42883759 8.57874443 13.53198209 13.46670171 15 19 C17.28517105 32.0438231 17.37850655 46.41179368 13 59 C12.34 59 11.68 59 11 59 C10.938125 59.804375 10.87625 60.60875 10.8125 61.4375 C9.9115753 65.38770828 8.36343192 68.13927303 6.25390625 71.55859375 C4.68016339 74.62273483 3.89244547 77.67329666 3 81 C2.14626622 83.81915927 1.25929895 86.62779434 0.375 89.4375 C0.14554687 90.16904297 -0.08390625 90.90058594 -0.3203125 91.65429688 C-0.87941811 93.43644602 -1.43959634 95.2182586 -2 97 C-2.66 97 -3.32 97 -4 97 C-4.03738281 97.58007812 -4.07476562 98.16015625 -4.11328125 98.7578125 C-4.54451095 103.88183597 -5.4808201 107.44609787 -8 112 C-8.76137148 113.977996 -9.46763167 115.96828504 -10.15625 117.97265625 C-11 120 -11 120 -12.46484375 122.3671875 C-14.12405082 125.21274874 -15.08188792 127.92215931 -16.0625 131.0625 C-17.15524373 134.54260351 -18.26591494 137.78616235 -20 141 C-20.66 141 -21.32 141 -22 141 C-22.12375 141.721875 -22.2475 142.44375 -22.375 143.1875 C-22.9960013 145.98200584 -23.77816771 148.41259045 -25 151 C-25.66 151.33 -26.32 151.66 -27 152 C-28.78890043 156.27780539 -30.15273098 160.53215789 -31.375 165 C-32.60575508 169.22991088 -34.366484 172.50072024 -36.8125 176.140625 C-38.59094663 178.92529802 -39.71980457 181.95953584 -41 185 C-41.79845905 186.4453462 -42.61205341 187.88239496 -43.4375 189.3125 C-45.67934589 193.26593481 -47.39757758 197.27602775 -49.03125 201.51171875 C-51.27678597 207.27948653 -53.77132449 212.71671279 -57 218 C-57.67441131 219.6635479 -58.3400321 221.33066942 -59 223 C-59.63594635 224.29656304 -60.28275374 225.58782837 -60.9375 226.875 C-62.46410501 229.87788238 -63.79755992 232.91196853 -65.08203125 236.02734375 C-66.26315326 238.56549956 -67.66826102 240.94774135 -69.0625 243.375 C-71.40490438 247.56485353 -72.78588646 251.17236782 -73.3828125 255.9296875 C-74.25120559 258.84265166 -76.09667543 260.63783826 -78 263 C-79.41611959 265.46109872 -80.64387547 268.00479595 -81.875 270.5625 C-82.57025144 271.98049869 -83.26556461 273.39846711 -83.9609375 274.81640625 C-84.47285645 275.86852295 -84.47285645 275.86852295 -84.99511719 276.94189453 C-86.47478862 279.97241693 -87.98749052 282.98573348 -89.5 286 C-89.9846875 286.969375 -90.469375 287.93875 -90.96875 288.9375 C-91.3090625 289.618125 -91.649375 290.29875 -92 291 C-92.66 291 -93.32 291 -94 291 C-94.01417969 291.61746094 -94.02835938 292.23492187 -94.04296875 292.87109375 C-94.56275037 302.10072954 -98.48425268 308.0474003 -103.86328125 315.29296875 C-105.6889576 318.03462018 -106.81155998 320.93507575 -108 324 C-108.66 324 -109.32 324 -110 324 C-110.37125 325.5159375 -110.37125 325.5159375 -110.75 327.0625 C-111.90195983 331.13994056 -113.80411342 334.3874124 -116 338 C-116.33 338.66 -116.66 339.32 -117 340 C-117.66 340 -118.32 340 -119 340 C-119.2475 340.70125 -119.495 341.4025 -119.75 342.125 C-121.16124318 345.37085932 -123.03914578 348.05871867 -125 351 C-125.29777344 351.79148437 -125.59554687 352.58296875 -125.90234375 353.3984375 C-128.12043341 358.6555468 -132.17253744 363.29818763 -137.0703125 366.24609375 C-143.34070082 368.66401102 -150.4054852 369.03117255 -157 368 C-162.01100984 365.65475359 -165.7627896 362.09586814 -168 357 C-170.03485357 351.14599963 -170.36617993 345.79904744 -170.375 339.625 C-170.39949219 338.73039062 -170.42398438 337.83578125 -170.44921875 336.9140625 C-170.47768033 330.38687236 -169.04857329 325.73303128 -166 320 C-165.30003906 318.56914063 -165.30003906 318.56914063 -164.5859375 317.109375 C-164.18632812 316.33078125 -163.78671875 315.5521875 -163.375 314.75 C-162.1389122 312.34080977 -160.99722764 309.99280296 -160.0234375 307.46484375 C-158.99327833 304.98381156 -157.78465751 303.01135068 -156.25 300.8125 C-153.36934001 296.61859795 -150.80314255 292.29748563 -148.296875 287.87109375 C-147.86890625 287.25363281 -147.4409375 286.63617188 -147 286 C-146.34 286 -145.68 286 -145 286 C-144.9175 285.29875 -144.835 284.5975 -144.75 283.875 C-143.82391569 280.32501013 -142.12874711 277.96734446 -140 275 C-137.8514464 272.14643467 -137.8514464 272.14643467 -137.25 268.9375 C-135.89480951 263.8446067 -133.12112546 259.21521564 -130 255 C-129.34 255 -128.68 255 -128 255 C-127.855625 254.21625 -127.71125 253.4325 -127.5625 252.625 C-127 250 -127 250 -126 248 C-125.34 248 -124.68 248 -124 248 C-123.7421875 247.278125 -123.484375 246.55625 -123.21875 245.8125 C-121.54998189 241.96149667 -119.1374007 238.86427213 -116.65625 235.5 C-115.02760869 233.04167349 -114.0513974 230.74315207 -113 228 C-112.13928489 226.43845494 -111.24144571 224.89694393 -110.3125 223.375 C-109.78785156 222.51261719 -109.26320313 221.65023437 -108.72265625 220.76171875 C-106.36990406 216.9898462 -103.95356663 213.26028064 -101.515625 209.54296875 C-100.04812543 207.08074653 -99.03827192 204.66416156 -98 202 C-97.360625 201.05125 -96.72125 200.1025 -96.0625 199.125 C-93.89869039 196.05744329 -93.89869039 196.05744329 -92.5625 192.5625 C-91.33042286 189.75336413 -90.2917917 187.89083847 -88.5 185.5 C-85.99725556 182.15549166 -84.53754132 178.88046144 -83 175 C-81.6771434 172.02357265 -80.28533638 170.28533638 -78 168 C-77.67 167.34 -77.34 166.68 -77 166 C-76 164 -76 164 -74.5703125 162.73046875 C-69.7232722 157.38907856 -68.4523083 148.01077865 -68 141 C-67.93683594 140.16339844 -67.87367188 139.32679688 -67.80859375 138.46484375 C-67.61368203 134.19564823 -67.59338461 131.71157693 -69.75 127.9375 C-74.34830502 123.97784845 -80.21926577 124.67087791 -86 125 C-90.62411411 125.53378275 -90.62411411 125.53378275 -95 127 C-95.69170079 128.32051969 -96.35445628 129.65631271 -97 131 C-98.57652414 132.51060675 -100.2078252 133.96507472 -101.875 135.375 C-105.69206197 138.70255402 -108.36822077 141.72335876 -111 146 C-111.66 146 -112.32 146 -113 146 C-113.36351562 146.82951172 -113.36351562 146.82951172 -113.734375 147.67578125 C-115.27177245 150.4990883 -117.17023312 152.73634618 -119.25 155.1875 C-122.64766477 159.27557025 -125.71973548 163.40203937 -128.58984375 167.87109375 C-130.05244853 170.0791813 -131.62697897 172.15767169 -133.25 174.25 C-135.41441728 177.07217526 -136.72661219 179.66960112 -138 183 C-138.99 183.66 -139.98 184.32 -141 185 C-141.268125 185.70125 -141.53625 186.4025 -141.8125 187.125 C-144.4150776 193.42597735 -149.17579689 198.29640197 -154 203 C-156.88556965 206.21493988 -159.60153405 209.40230107 -162 213 C-162.66 213 -163.32 213 -164 213 C-164.268125 213.556875 -164.53625 214.11375 -164.8125 214.6875 C-165.204375 215.450625 -165.59625 216.21375 -166 217 C-166.5878125 218.2065625 -166.5878125 218.2065625 -167.1875 219.4375 C-169.24799974 222.35062033 -171.37162358 223.79238267 -174.30859375 225.7421875 C-176.22844842 227.04877363 -176.22844842 227.04877363 -178 229.625 C-181.48508492 233.76353834 -185.6009208 234.69686617 -190.75 235.8125 C-196.3041659 235.68181374 -199.98339977 230.94540775 -203.6796875 227.28515625 C-205.78005385 224.9812327 -205.78005385 224.9812327 -208 224 C-211.18199929 217.51361684 -211.97653795 211.18042609 -211 204 C-208.9181081 198.87160628 -205.71187843 194.67663517 -202.375 190.3125 C-201.84156982 189.60915527 -201.30813965 188.90581055 -200.75854492 188.18115234 C-194.20216416 179.5787879 -187.36862344 171.29228916 -180.078125 163.30078125 C-178.19344164 161.21416753 -176.36965104 159.09116786 -174.5625 156.9375 C-172 154 -172 154 -170 153 C-169.97285566 150.2915983 -169.95309154 147.58347279 -169.9375 144.875 C-169.92912109 144.11445313 -169.92074219 143.35390625 -169.91210938 142.5703125 C-169.89353491 138.2610356 -170.13882735 134.24483526 -171 130 C-171.66 130 -172.32 130 -173 130 C-173.433125 128.96875 -173.86625 127.9375 -174.3125 126.875 C-176.97878466 120.043819 -176.97878466 120.043819 -182 115 C-188.81720737 114.44121251 -192.8165356 115.62780556 -198.421875 119.8046875 C-206.62957295 127.1034793 -213.31714692 135.41329433 -219 144.8125 C-219.66 145.864375 -220.32 146.91625 -221 148 C-221.66 148 -222.32 148 -223 148 C-223 149.32 -223 150.64 -223 152 C-223.66 152 -224.32 152 -225 152 C-225.37125 153.50626953 -225.37125 153.50626953 -225.75 155.04296875 C-226.92960043 159.16637835 -228.82210079 162.63926783 -231 166.3125 C-231.53367188 167.2415918 -231.53367188 167.2415918 -232.078125 168.18945312 C-233.55460187 170.72645909 -234.9158561 172.9158561 -237 175 C-237.69658416 176.65853372 -238.39197005 178.31759323 -239.078125 179.98046875 C-240.68527458 183.50121593 -242.60322444 186.95459211 -245 190 C-245.66 190 -246.32 190 -247 190 C-247.2475 190.53625 -247.495 191.0725 -247.75 191.625 C-250.49473839 196.84000295 -253.73921733 200.94706038 -258 205 C-258.763125 205.825 -259.52625 206.65 -260.3125 207.5 C-268.81863098 215.41267998 -278.88262033 219.31536287 -290.4375 219.5 C-291.12392578 219.51844971 -291.81035156 219.53689941 -292.51757812 219.5559082 C-295.70245212 219.51621518 -297.69406693 219.20768834 -300.34765625 217.40625 C-305.32755131 210.15420424 -304.88418606 200.460853 -304 192 C-303.04050622 187.81225869 -301.67289475 183.95138939 -300 180 C-299.53787109 178.86498047 -299.53787109 178.86498047 -299.06640625 177.70703125 C-298.40667751 176.12557623 -297.70907063 174.55995539 -297 173 C-296.34 173 -295.68 173 -295 173 C-295.01353516 171.94425781 -295.01353516 171.94425781 -295.02734375 170.8671875 C-294.75061943 161.65106462 -291.4817289 154.84759878 -287 147 C-286.43023437 145.99710938 -285.86046875 144.99421875 -285.2734375 143.9609375 C-281.48480903 137.48480903 -281.48480903 137.48480903 -279 135 C-278.27307051 133.32490161 -277.54718871 131.64856558 -276.87890625 129.94921875 C-275.77657162 127.5044855 -274.39260923 125.29106681 -273 123 C-272.07610165 121.29556684 -271.15969065 119.58705825 -270.25 117.875 C-266.53067798 111.01285086 -262.32728776 104.49093165 -258 98 C-257.34 98 -256.68 98 -256 98 C-255.773125 97.01902344 -255.54625 96.03804688 -255.3125 95.02734375 C-253.98573735 90.39184993 -251.58376968 86.5968718 -249 82.5625 C-248.54882812 81.83095703 -248.09765625 81.09941406 -247.6328125 80.34570312 C-246.48287747 78.52383859 -245.24804183 76.75611291 -244 75 C-243.34 75 -242.68 75 -242 75 C-241.73501709 74.26861816 -241.47003418 73.53723633 -241.19702148 72.78369141 C-240.00251179 70.00584121 -238.64508294 67.88368043 -236.84765625 65.4609375 C-236.23599609 64.63335937 -235.62433594 63.80578125 -234.99414062 62.953125 C-234.35669922 62.10234375 -233.71925781 61.2515625 -233.0625 60.375 C-232.42892578 59.51648438 -231.79535156 58.65796875 -231.14257812 57.7734375 C-228.57237818 54.31407269 -226.08889229 51.01182031 -223 48 C-222.06479453 46.76380887 -221.1490591 45.51272345 -220.25 44.25 C-217.62709988 40.6940782 -214.75651268 37.64585538 -211.58203125 34.58203125 C-209.85567005 32.92198578 -209.85567005 32.92198578 -208.0625 30.5 C-203.77964545 25.30866115 -198.44139403 20.19007397 -192 18 C-187.18133953 17.59332961 -182.66596422 17.66686736 -178 19 C-178 19.66 -178 20.32 -178 21 C-177.34 21 -176.68 21 -176 21 C-174.46148234 22.71951974 -172.99268241 24.50187497 -171.5625 26.3125 C-168.58875453 30.11978787 -168.58875453 30.11978787 -165.3046875 33.6484375 C-163.53104983 35.48579868 -162.81835667 37.62216975 -161.94140625 39.98828125 C-160.97130075 42.20862079 -160.97130075 42.20862079 -159.0625 44.7890625 C-156.89723978 48.15997898 -155.6892972 51.26579495 -154.4375 55.0625 C-152.98692292 59.44276719 -151.37258026 63.06542176 -149 67 C-147.42250789 70.5405934 -146.03082391 74.15787317 -144.60546875 77.76171875 C-143.36548737 80.84801602 -142.18914069 83.69830892 -140.41796875 86.5234375 C-138.48000997 89.90819195 -137.69647996 93.34830741 -136.8125 97.125 C-136.63525391 97.84042969 -136.45800781 98.55585938 -136.27539062 99.29296875 C-135.55622971 102.26401963 -135 104.93247617 -135 108 C-133.68 108 -132.36 108 -131 108 C-130.79761719 107.46890625 -130.59523438 106.9378125 -130.38671875 106.390625 C-128.39596091 102.95867063 -125.65690615 100.4885827 -122.8125 97.75 C-119.33113804 94.37831922 -115.95077091 90.99512532 -112.80078125 87.30859375 C-107.95401088 81.69214141 -102.6390841 76.5324949 -97.375 71.3125 C-96.34090959 70.28344047 -95.30705398 69.25414493 -94.2734375 68.22460938 C-92.37302143 66.33227605 -90.471024 64.4415879 -88.56787109 62.55200195 C-83.63036747 57.648001 -83.63036747 57.648001 -78.75390625 52.68359375 C-74.72405031 48.553171 -70.88664436 45.10968277 -66 42 C-63.49339468 39.69663295 -61.22301986 37.25218399 -58.96875 34.703125 C-52.23970788 27.09838562 -45.55425885 20.90813649 -37.02734375 15.3984375 C-34.35275968 13.55354136 -32.23401285 11.35159247 -30 9 C-21.33924747 0.53266378 -11.95887969 -1.74974392 0 0 Z " fill="#6944F2" transform="translate(464,194)"/>
<path d="M0 0 C6.9319026 -0.4244022 12.05197108 1.09838241 17.23828125 5.62890625 C18.27199572 6.59727847 19.29675559 7.57529503 20.3125 8.5625 C20.83650391 9.05685547 21.36050781 9.55121094 21.90039062 10.06054688 C27.91508543 15.75178818 27.91508543 15.75178818 28.8125 18.375 C29.84496899 21.18619249 29.84496899 21.18619249 32.5 23 C35.27818154 25.22254523 35.77233292 26.7554513 37 30 C37.99 30.33 38.98 30.66 40 31 C40.42067795 32.78788127 40.82955348 34.57898688 41.1953125 36.37890625 C42.22996779 39.74906984 43.9030473 42.55107238 45.625 45.625 C49.39039329 52.66900569 50.28080502 59.01021628 49 67 C47.08250543 72.83322033 42.74361438 77.59629032 37.3125 80.375 C29.98111459 81.75828027 23.62132586 80.33970383 17 77 C14.78901556 75.31581315 12.86498177 73.43598258 10.9375 71.4375 C10.41728271 70.90954834 9.89706543 70.38159668 9.36108398 69.83764648 C5.6219921 65.92963562 2.81053701 61.85845147 0.22265625 57.09765625 C-1.0105927 54.77704957 -1.0105927 54.77704957 -3.5 52.5 C-10.76280727 45.23719273 -15.97178203 34.07678987 -16.4375 23.75 C-15.49727329 15.69091389 -12.57735294 10.14109039 -6.4375 4.75 C-4 3 -4 3 -1 2 C-0.67 1.34 -0.34 0.68 0 0 Z " fill="#9E70F7" transform="translate(166,119)"/>
<path d="M0 0 C2.77467953 1.98191395 4.85784489 4.36310907 7 7 C8.07314453 8.12148437 8.07314453 8.12148437 9.16796875 9.265625 C12.73714626 14.59275561 11.87341404 21.81356391 11 28 C9.57408116 32.97983107 7.807292 37.76830434 4.51953125 41.828125 C2.76768686 44.33204655 1.88988775 46.924546 0.87060547 49.78808594 C-0.69347782 53.7618926 -2.83336996 57.41697886 -4.9375 61.125 C-5.58235352 62.28322266 -5.58235352 62.28322266 -6.24023438 63.46484375 C-8.14120669 66.8514014 -10.07209627 70.17651847 -12.25390625 73.390625 C-14.07408012 75.90009214 -14.07408012 75.90009214 -15 78.625 C-16 81 -16 81 -17.82421875 82.8125 C-20.16865638 85.16956476 -21.93013352 87.63770944 -23.8125 90.375 C-31.81177378 101.44066207 -31.81177378 101.44066207 -38.5625 102.625 C-44.78417384 101.49378657 -48.46794512 98.10185704 -52 93 C-55.62644204 82.12067389 -50.67607985 71.70911236 -46 62 C-45.34 62 -44.68 62 -44 62 C-43.814375 60.7625 -43.62875 59.525 -43.4375 58.25 C-42.02401802 51.77666222 -38.48094986 46.55091337 -35 41 C-34.47148437 40.11183594 -33.94296875 39.22367188 -33.3984375 38.30859375 C-32 36 -32 36 -30.0625 33.3125 C-27.86061097 29.77613278 -26.43176578 26.27701353 -24.93359375 22.40625 C-21.72380952 14.13333333 -21.72380952 14.13333333 -17 12 C-15.99083967 10.23408113 -15.99083967 10.23408113 -15 8 C-14.18952876 6.75564012 -13.3539428 5.52743903 -12.5 4.3125 C-12.0771875 3.71050781 -11.654375 3.10851562 -11.21875 2.48828125 C-8.405312 -0.94735938 -4.06883934 -0.90500405 0 0 Z " fill="#8B60F5" transform="translate(398,95)"/>
<path d="M0 0 C2.625 1.9375 2.625 1.9375 5 5 C6.37252897 6.48145984 7.74773943 7.96043794 9.125 9.4375 C14.73191092 15.8907371 16.62264927 20.46597982 16.4296875 29.07421875 C15.76724451 33.58485332 14.12329431 35.72797739 11 39 C10.34 39 9.68 39 9 39 C8.72800781 39.60328125 8.45601562 40.2065625 8.17578125 40.828125 C1.47379257 53.20787818 -20.28826401 62.05510881 -33 67 C-38.19012439 68.5190608 -43.66672172 68.77775943 -48.8125 67.0625 C-53.25477191 62.8740722 -53.85923477 57.96107182 -54.28515625 52.02734375 C-54.32612754 50.60183668 -54.35601304 49.17596934 -54.375 47.75 C-54.38893799 47.06462158 -54.40287598 46.37924316 -54.41723633 45.6730957 C-54.37523805 41.20218825 -53.50834696 38.64627997 -51 35 C-50.72414063 34.19691406 -50.44828125 33.39382812 -50.1640625 32.56640625 C-48.56545232 29.04195361 -46.09928163 26.6110539 -43.375 23.9375 C-42.52796509 23.1007373 -42.52796509 23.1007373 -41.66381836 22.24707031 C-37.19714754 17.94210812 -32.48953284 14.01607851 -27.5625 10.25 C-26.9010498 9.73687256 -26.23959961 9.22374512 -25.55810547 8.69506836 C-21.73836304 5.86482387 -18.88374506 4.33212486 -14 4 C-14 3.34 -14 2.68 -14 2 C-9.44565742 -0.61900994 -5.1405129 -0.79084814 0 0 Z " fill="#7A52F3" transform="translate(544,111)"/>
<path d="M0 0 C0.33 0 0.66 0 1 0 C0.93912884 1.39699314 0.85011115 2.7927696 0.75 4.1875 C0.70359375 4.96480469 0.6571875 5.74210937 0.609375 6.54296875 C-0.19037898 9.7676178 -1.89518312 11.43826557 -4 14 C-5.41830987 16.4597929 -6.643901 19.00484899 -7.875 21.5625 C-8.57025144 22.98049869 -9.26556461 24.39846711 -9.9609375 25.81640625 C-10.3022168 26.51781738 -10.64349609 27.21922852 -10.99511719 27.94189453 C-12.47478862 30.97241693 -13.98749052 33.98573348 -15.5 37 C-15.9846875 37.969375 -16.469375 38.93875 -16.96875 39.9375 C-17.3090625 40.618125 -17.649375 41.29875 -18 42 C-18.66 42 -19.32 42 -20 42 C-20.01417969 42.61746094 -20.02835937 43.23492187 -20.04296875 43.87109375 C-20.56275037 53.10072954 -24.48425268 59.0474003 -29.86328125 66.29296875 C-31.6889576 69.03462018 -32.81155998 71.93507575 -34 75 C-34.66 75 -35.32 75 -36 75 C-36.2475 76.010625 -36.495 77.02125 -36.75 78.0625 C-37.90195983 82.13994056 -39.80411342 85.3874124 -42 89 C-42.33 89.66 -42.66 90.32 -43 91 C-43.66 91 -44.32 91 -45 91 C-45.2475 91.70125 -45.495 92.4025 -45.75 93.125 C-47.16124318 96.37085932 -49.03914578 99.05871867 -51 102 C-51.44666016 103.18722656 -51.44666016 103.18722656 -51.90234375 104.3984375 C-54.12043341 109.6555468 -58.17253744 114.29818763 -63.0703125 117.24609375 C-69.34070082 119.66401102 -76.4054852 120.03117255 -83 119 C-88.01100984 116.65475359 -91.7627896 113.09586814 -94 108 C-96.03485357 102.14599963 -96.36617993 96.79904744 -96.375 90.625 C-96.39949219 89.73039063 -96.42398437 88.83578125 -96.44921875 87.9140625 C-96.47768033 81.38687236 -95.04857329 76.73303128 -92 71 C-91.53335937 70.04609375 -91.06671875 69.0921875 -90.5859375 68.109375 C-90.18632812 67.33078125 -89.78671875 66.5521875 -89.375 65.75 C-88.11169987 63.28777173 -86.97652401 60.9347253 -86.0390625 58.328125 C-85 56 -85 56 -82 54 C-84.04857272 60.36135738 -86.35416662 66.57593445 -88.81640625 72.7890625 C-92.96026612 84.03082097 -95.41003348 97.48245053 -90.35546875 108.81640625 C-88.15737422 112.35742886 -85.93229408 114.53700082 -82 116 C-75.75505315 117.1344238 -70.67292717 115.48964708 -65 113 C-64.05125 112.690625 -63.1025 112.38125 -62.125 112.0625 C-59.41717018 110.70858509 -59.30829729 109.71133336 -58 107 C-56.60075145 104.7779933 -55.18615429 102.57276476 -53.75 100.375 C-43.88233677 85.12158853 -34.96559454 69.3294688 -27 53 C-25.7142864 50.39285854 -24.42117178 47.78945632 -23.125 45.1875 C-22.7856543 44.5056665 -22.44630859 43.82383301 -22.09667969 43.12133789 C-19.85355757 38.63880043 -17.51708155 34.21693895 -15.125 29.8125 C-11.21468924 22.60597568 -7.71145183 15.21694992 -4.23681641 7.79223633 C-3.82995605 6.92493896 -3.4230957 6.0576416 -3.00390625 5.1640625 C-2.64111572 4.38498535 -2.2783252 3.6059082 -1.90454102 2.80322266 C-1 1 -1 1 0 0 Z " fill="#2B189D" transform="translate(390,443)"/>
<path d="M0 0 C0.98120464 3.05263664 0.98120464 4.94736336 0 8 C-0.66 8 -1.32 8 -2 8 C-2.12375 8.70898438 -2.2475 9.41796875 -2.375 10.1484375 C-3.02225412 13.10153443 -3.93988494 15.79542819 -5 18.625 C-8.38730878 27.71593901 -10.08099855 38.43209488 -6.625 47.875 C-5.19761746 51.00313679 -5.19761746 51.00313679 -3 53 C-0.39071116 53.22753708 2.07850192 53.32426284 4.6875 53.3125 C5.73067383 53.33666992 5.73067383 53.33666992 6.79492188 53.36132812 C10.54155215 53.36482638 13.35643195 53.01657811 16.76953125 51.41796875 C20 50 20 50 22.4375 50.3125 C22.953125 50.539375 23.46875 50.76625 24 51 C13.54098361 57.75908767 13.54098361 57.75908767 8 58 C7.02740234 58.05607422 7.02740234 58.05607422 6.03515625 58.11328125 C1.88542328 58.26010607 -1.48661819 58.27895036 -5 56 C-11.82716128 47.04539469 -11.69036028 37.84201228 -11 27 C-9.93047455 20.18177526 -7.58637014 14.82785148 -4 9 C-2.92843367 6.69164786 -1.96941864 4.35430241 -1 2 C-0.67 1.34 -0.34 0.68 0 0 Z " fill="#2B1C5E" transform="translate(169,359)"/>
<path d="M0 0 C0 3.73838874 -0.88994615 4.32222769 -3.375 7 C-5.48740728 9.294961 -7.26130597 11.39195896 -9 14 C-9.66 14 -10.32 14 -11 14 C-11.268125 14.556875 -11.53625 15.11375 -11.8125 15.6875 C-12.4003125 16.8321875 -12.4003125 16.8321875 -13 18 C-13.391875 18.804375 -13.78375 19.60875 -14.1875 20.4375 C-16.24799974 23.35062033 -18.37162358 24.79238267 -21.30859375 26.7421875 C-23.22844842 28.04877363 -23.22844842 28.04877363 -25 30.625 C-28.48508492 34.76353834 -32.6009208 35.69686617 -37.75 36.8125 C-43.3041659 36.68181374 -46.98339977 31.94540775 -50.6796875 28.28515625 C-52.78005385 25.9812327 -52.78005385 25.9812327 -55 25 C-55.625 22.4375 -55.625 22.4375 -56 20 C-55.01 20.33 -54.02 20.66 -53 21 C-52.71125 21.61875 -52.4225 22.2375 -52.125 22.875 C-50.61315445 25.73070826 -48.82383631 26.48957593 -46 28 C-45.21625 28.556875 -44.4325 29.11375 -43.625 29.6875 C-40.01074659 31.49462671 -38.01691314 31.60253697 -34 31 C-30.73340125 29.33932689 -27.90223978 27.22631097 -25 25 C-24.14664062 24.36191406 -23.29328125 23.72382813 -22.4140625 23.06640625 C-17.28233608 19.11358995 -13.03511081 15.04115469 -9 10 C-7.75658644 8.55679906 -6.50643869 7.11937572 -5.25 5.6875 C-4.39148438 4.70330078 -4.39148438 4.70330078 -3.515625 3.69921875 C-2.38330001 2.42973068 -1.20286322 1.20286322 0 0 Z " fill="#472CB7" transform="translate(311,393)"/>
<path d="M0 0 C1 2 1 2 0.44140625 3.9453125 C0.15136719 4.66460937 -0.13867188 5.38390625 -0.4375 6.125 C-0.86869141 7.21167969 -0.86869141 7.21167969 -1.30859375 8.3203125 C-1.53675781 8.87460937 -1.76492188 9.42890625 -2 10 C-2.66 10 -3.32 10 -4 10 C-4.03738281 10.58007812 -4.07476562 11.16015625 -4.11328125 11.7578125 C-4.54451095 16.88183597 -5.4808201 20.44609787 -8 25 C-8.76137148 26.977996 -9.46763167 28.96828504 -10.15625 30.97265625 C-11 33 -11 33 -12.46484375 35.3671875 C-14.12405082 38.21274874 -15.08188792 40.92215931 -16.0625 44.0625 C-17.15524373 47.54260351 -18.26591494 50.78616235 -20 54 C-20.66 54 -21.32 54 -22 54 C-22.185625 55.0828125 -22.185625 55.0828125 -22.375 56.1875 C-22.9904931 58.95721894 -23.88444374 61.3970354 -25 64 C-26.0607354 60.78893024 -25.94904546 58.97982721 -24.8125 55.8125 C-24.5340625 55.03648437 -24.255625 54.26046875 -23.96875 53.4609375 C-22.44140047 49.58097699 -20.76014971 45.77940776 -19 42 C-18.34 42 -17.68 42 -17 42 C-17 40.02 -17 38.04 -17 36 C-16.34 36 -15.68 36 -15 36 C-14.01 32.04 -13.02 28.08 -12 24 C-11.34 24 -10.68 24 -10 24 C-9.76216797 22.83984375 -9.76216797 22.83984375 -9.51953125 21.65625 C-8.17940783 15.67382059 -6.72809001 10.75392226 -3.18359375 5.71875 C-1.92147238 3.88596649 -0.95514933 2.00713408 0 0 Z " fill="#291A69" transform="translate(464,281)"/>
<path d="M0 0 C0.33 0 0.66 0 1 0 C0.93912884 1.39699314 0.85011115 2.7927696 0.75 4.1875 C0.70359375 4.96480469 0.6571875 5.74210937 0.609375 6.54296875 C-0.19037898 9.7676178 -1.89518312 11.43826557 -4 14 C-5.41830987 16.4597929 -6.643901 19.00484899 -7.875 21.5625 C-8.57025144 22.98049869 -9.26556461 24.39846711 -9.9609375 25.81640625 C-10.3022168 26.51781738 -10.64349609 27.21922852 -10.99511719 27.94189453 C-12.47478862 30.97241693 -13.98749052 33.98573348 -15.5 37 C-15.9846875 37.969375 -16.469375 38.93875 -16.96875 39.9375 C-17.3090625 40.618125 -17.649375 41.29875 -18 42 C-18.66 42 -19.32 42 -20 42 C-20.25910156 43.01578125 -20.51820313 44.0315625 -20.78515625 45.078125 C-21.88192639 48.90958587 -23.52543355 52.24660082 -25.4375 55.75 C-26.03433594 56.85859375 -26.63117188 57.9671875 -27.24609375 59.109375 C-28.68985633 61.48885007 -29.9200462 63.19355695 -32 65 C-31.42549367 61.06252977 -30.24984534 58.46985223 -28.125 55.125 C-24.58104856 49.23290896 -21.6128112 43.15750058 -18.6875 36.9375 C-14.05903884 27.10903406 -9.13569559 17.48134556 -4.0078125 7.90576172 C-2.62614074 5.29303648 -1.30660969 2.65091004 0 0 Z " fill="#381FC5" transform="translate(390,443)"/>
<path d="M0 0 C0 0.66 0 1.32 0 2 C0.66 2 1.32 2 2 2 C2.66 3.32 3.32 4.64 4 6 C2.02 5.34 0.04 4.68 -2 4 C-2 3.34 -2 2.68 -2 2 C-3.56210161 1.94540227 -5.12477089 1.90693899 -6.6875 1.875 C-7.55761719 1.85179687 -8.42773438 1.82859375 -9.32421875 1.8046875 C-15.23319228 2.23599944 -18.66047806 5.16003024 -22.8125 9.125 C-23.33658447 9.61564941 -23.86066895 10.10629883 -24.40063477 10.61181641 C-29.22382884 15.15016162 -33.90428687 19.82511262 -38.52734375 24.56640625 C-41.80777311 27.90388655 -41.80777311 27.90388655 -44 29 C-42.59361711 24.57542463 -40.46887191 22.17518995 -37.125 19 C-33.79539097 15.81947794 -30.86526008 12.5990462 -28 9 C-19.65391538 0.72149501 -11.80153492 -3.37186712 0 0 Z " fill="#7450CF" transform="translate(286,213)"/>
<path d="M0 0 C3.31924413 0.79373229 4.73611029 1.77177106 7.3125 4 C11.29292871 11.0763177 8.86554435 20.46486836 7 28 C4.74116116 35.64160375 4.74116116 35.64160375 3 39 C1.515 39.495 1.515 39.495 0 40 C-0.70381157 41.98723268 -1.3711811 43.98777953 -2 46 C-2.99 46.495 -2.99 46.495 -4 47 C-3.39294514 42.87202695 -2.06000669 39.62561178 0 36 C0.99 35.505 0.99 35.505 2 35 C6.24640411 26.36564497 6.39233439 15.45961817 6 6 C-0.3618858 3.23918163 -6.09232563 2.36823999 -13 2 C-8.72956425 -0.84695717 -5.00592368 -0.37704874 0 0 Z " fill="#1F144B" transform="translate(388,318)"/>
<path d="M0 0 C0.75 1.5625 0.75 1.5625 1 4 C-0.36068323 7.22897886 -1.76639367 10.38319684 -5 12 C-5.7003085 13.66740119 -6.39810001 15.33594289 -7.078125 17.01171875 C-8.63854125 20.37719279 -10.6908755 23.0987923 -13 26 C-13.66 26 -14.32 26 -15 26 C-14.91298828 27.09248047 -14.91298828 27.09248047 -14.82421875 28.20703125 C-15.03293034 31.52322644 -15.92581752 32.98371416 -17.8125 35.6875 C-18.33457031 36.45449219 -18.85664063 37.22148437 -19.39453125 38.01171875 C-21 40 -21 40 -24 42 C-25.19232613 44.05003955 -25.19232613 44.05003955 -26 46 C-26.64453125 44.21875 -26.64453125 44.21875 -27 42 C-26.07421875 40.21875 -26.07421875 40.21875 -24.6875 38.5 C-22.812936 36.07868816 -21.24117742 33.82085777 -20 31 C-19.34 31 -18.68 31 -18 31 C-17.855625 30.21625 -17.71125 29.4325 -17.5625 28.625 C-17 26 -17 26 -16 24 C-15.34 24 -14.68 24 -14 24 C-13.7421875 23.278125 -13.484375 22.55625 -13.21875 21.8125 C-11.54998189 17.96149667 -9.1374007 14.86427213 -6.65625 11.5 C-5.03437967 9.05189385 -4.03559094 6.7356097 -3 4 C-2.04175747 2.63634717 -1.05278825 1.29205831 0 0 Z " fill="#3F26BA" transform="translate(354,418)"/>
<path d="M0 0 C0.66 0.33 1.32 0.66 2 1 C1.278125 1.53625 0.55625 2.0725 -0.1875 2.625 C-3.10641991 4.93041309 -3.10641991 4.93041309 -5.375 8 C-8.85734699 11.97982513 -12.44929141 13.89699088 -17.3125 16 C-19.14644845 16.87659742 -19.14644845 16.87659742 -19.875 18.8125 C-21.23442659 21.45582948 -23.11989051 22.82696434 -25.421875 24.6484375 C-27.94681359 26.81088491 -29.9086218 29.42599606 -32 32 C-36.11797917 36.57553241 -40.83769733 39.72716759 -46 43 C-44.58566816 39.66101039 -42.93619488 37.88456419 -40.125 35.625 C-36.67363022 32.72709312 -34.48383277 29.76857386 -32 26 C-29.625 24.4375 -29.625 24.4375 -27 23 C-22.2442552 19.23503536 -17.97623617 15.15060995 -13.875 10.6875 C-12 9 -12 9 -9 9 C-9 8.34 -9 7.68 -9 7 C-8.34 7 -7.68 7 -7 7 C-7 6.34 -7 5.68 -7 5 C-5.46875 3.7109375 -5.46875 3.7109375 -3.5 2.375 C-2.8503125 1.92898437 -2.200625 1.48296875 -1.53125 1.0234375 C-1.0259375 0.68570313 -0.520625 0.34796875 0 0 Z " fill="#2D1E5B" transform="translate(435,200)"/>
<path d="M0 0 C0.99 0.845625 1.98 1.69125 3 2.5625 C3.64066406 3.10519531 4.28132812 3.64789063 4.94140625 4.20703125 C6.31191251 5.40069799 7.65391398 6.62791342 8.96484375 7.88671875 C13.3472999 12.02618724 16.87474452 14.62256348 23 15 C27.82523973 14.86081039 32.40750985 14.53083005 37 13 C37.68486725 11.67592331 38.34870203 10.34090759 39 9 C40.29470975 7.62913085 41.62150897 6.28659163 43 5 C42.49890042 9.38462134 41.01704885 11.8000997 38 15 C37.34 15 36.68 15 36 15 C36 15.66 36 16.32 36 17 C29.11746197 19.29417934 20.79111499 18.74820822 14.02734375 16.1796875 C10.16082569 13.92980609 7.7278716 10.46568302 5 7 C4.03730616 6.02512016 3.06020578 5.06401721 2.0625 4.125 C0 2 0 2 0 0 Z " fill="#3E2B65" transform="translate(171,184)"/>
<path d="M0 0 C0.60546875 1.828125 0.60546875 1.828125 1 4 C-0.25717453 6.04872887 -1.60644236 8.04148656 -3 10 C-3.67028244 11.2581095 -4.3153315 12.52991495 -4.9375 13.8125 C-7.13324518 18.30533245 -9.50828864 22.66442224 -12 27 C-12.52980469 27.92232422 -12.52980469 27.92232422 -13.0703125 28.86328125 C-14.26674896 30.93525565 -15.47549444 32.9995993 -16.6875 35.0625 C-17.08026123 35.74256104 -17.47302246 36.42262207 -17.87768555 37.12329102 C-18.86239886 38.78341803 -19.92493354 40.39690483 -21 42 C-21.66 42 -22.32 42 -23 42 C-21.71338178 37.63193113 -20.03430474 34.21211066 -17.5 30.4375 C-15.2104287 27.01769542 -13.47840632 23.83361639 -12 20 C-11.360625 19.05125 -10.72125 18.1025 -10.0625 17.125 C-7.89869039 14.05744329 -7.89869039 14.05744329 -6.5625 10.5625 C-4.79528556 6.53325107 -2.64451389 3.50219407 0 0 Z " fill="#3B24A3" transform="translate(378,376)"/>
<path d="M0 0 C2.75 2.125 2.75 2.125 5 5 C6.09100755 6.1171708 7.19545057 7.22136819 8.3125 8.3125 C9.199375 9.199375 10.08625 10.08625 11 11 C10.67 11.66 10.34 12.32 10 13 C9.31164062 12.27683594 9.31164062 12.27683594 8.609375 11.5390625 C7.99578125 10.90742187 7.3821875 10.27578125 6.75 9.625 C6.14671875 8.99851562 5.5434375 8.37203125 4.921875 7.7265625 C1.89370765 5.00613574 -0.25105765 4.07065494 -4.3125 3.6875 C-8.41862586 4.03547677 -11.25701137 5.3364495 -15 7 C-17.9375 7.1875 -17.9375 7.1875 -20 7 C-20.33 7.99 -20.66 8.98 -21 10 C-23.3125 12.25 -23.3125 12.25 -26 14 C-28.16796875 13.609375 -28.16796875 13.609375 -30 13 C-28.47065791 11.67315972 -26.92590495 10.36407067 -25.375 9.0625 C-24.51648438 8.33160156 -23.65796875 7.60070312 -22.7734375 6.84765625 C-19.75037959 4.83370358 -17.58340465 4.33101832 -14 4 C-14 3.34 -14 2.68 -14 2 C-9.45638742 -0.61283957 -5.12938161 -0.81166397 0 0 Z " fill="#51379C" transform="translate(544,111)"/>
<path d="M0 0 C1.00836311 1.98134506 1.98150224 3.95695068 2.859375 6 C5.02713304 10.86794788 6.96237317 13.71881049 12 16 C18.25673497 17.00989971 23.32361799 15.52969198 29 13 C29.99 12.608125 30.98 12.21625 32 11.8125 C32.66 11.544375 33.32 11.27625 34 11 C32.27048655 15.05541085 30.48758931 16.4302872 26.54296875 18.2265625 C20.67041495 20.01268485 14.1395774 20.47198255 8.4921875 17.82421875 C4.80127066 15.18882241 1.63641043 12.29557738 0 8 C-0.21866413 5.27941144 -0.13925907 2.7387617 0 0 Z " fill="#2E18B7" transform="translate(296,543)"/>
<path d="M0 0 C0 7.62494922 -4.60901767 14.1068395 -9 20 C-9.29390625 20.79148437 -9.5878125 21.58296875 -9.890625 22.3984375 C-11.19254273 25.45152627 -12.87646746 27.38263419 -15.125 29.8125 C-15.84945313 30.60269531 -16.57390625 31.39289062 -17.3203125 32.20703125 C-17.87460937 32.79871094 -18.42890625 33.39039063 -19 34 C-19.66 33.67 -20.32 33.34 -21 33 C-20.34 32.34 -19.68 31.68 -19 31 C-18.70351563 30.23558594 -18.40703125 29.47117187 -18.1015625 28.68359375 C-16.88265158 25.71411927 -15.33674457 23.59869966 -13.375 21.0625 C-9.25792053 15.54546297 -5.89289539 9.78124262 -2.56640625 3.7734375 C-1 1 -1 1 0 0 Z " fill="#2D18B4" transform="translate(348,525)"/>
<path d="M0 0 C0.66 0.33 1.32 0.66 2 1 C-3.07807983 5.2737504 -7.82410738 8.71095119 -14.0546875 11.078125 C-16.20959335 12.09932536 -17.32767891 13.31925412 -19 15 C-20.61200689 15.95536302 -22.26198877 16.8484846 -23.9375 17.6875 C-25.21947266 18.34298828 -25.21947266 18.34298828 -26.52734375 19.01171875 C-29 20 -29 20 -33 20 C-33 20.66 -33 21.32 -33 22 C-36.68766192 23.18005182 -40.15110517 23.20993972 -44 23 C-44.99 22.34 -45.98 21.68 -47 21 C-46.16597656 20.90203125 -45.33195312 20.8040625 -44.47265625 20.703125 C-28.37664647 18.5643654 -15.37582527 10.12093513 -2.109375 1.15234375 C-1.41328125 0.77207031 -0.7171875 0.39179688 0 0 Z " fill="#26194E" transform="translate(545,158)"/>
<path d="M0 0 C3.83039408 1.27679803 3.98757415 2.59435626 6 6 C9.44444695 9.8359041 9.44444695 9.8359041 14 12 C14 12.66 14 13.32 14 14 C20.13543808 14.20494156 24.04487156 13.50240546 28.625 9.25 C29.70974609 8.17492187 29.70974609 8.17492187 30.81640625 7.078125 C33.9197612 4.12466376 37.3066508 2.14885772 41 0 C39.89508496 3.31474512 39.4765235 3.59528051 36.6875 5.375 C34.20923667 7.0439319 32.85039667 8.19635437 31 10.625 C27.51491508 14.76353834 23.3990792 15.69686617 18.25 16.8125 C12.6958341 16.68181374 9.01660023 11.94540775 5.3203125 8.28515625 C3.21994615 5.9812327 3.21994615 5.9812327 1 5 C0.375 2.4375 0.375 2.4375 0 0 Z " fill="#24175F" transform="translate(255,413)"/>
<path d="M0 0 C0.75 1.5625 0.75 1.5625 1 4 C0.05898254 5.78468829 -0.89294447 7.56708972 -1.95703125 9.28125 C-3.25990781 11.4283125 -4.08766293 13.66213627 -5 16 C-5.63590413 17.29658375 -6.28278777 18.58781106 -6.9375 19.875 C-8.18952933 22.33778297 -9.31343467 24.75509262 -10.375 27.3125 C-12.49825778 32.41306338 -15.30874027 37.18360314 -18 42 C-19 39 -19 39 -17.671875 35.890625 C-17.04121244 34.67187626 -16.40012969 33.45847637 -15.75 32.25 C-13.28705246 27.567359 -11.06368432 22.8787614 -9 18 C-7.64993887 15.02986552 -6.26442342 12.07688859 -4.875 9.125 C-4.51535156 8.35414063 -4.15570313 7.58328125 -3.78515625 6.7890625 C-1.12056167 1.12056167 -1.12056167 1.12056167 0 0 Z " fill="#4026C7" transform="translate(410,401)"/>
<path d="M0 0 C4.27571507 4.27571507 3.4692989 10.98940981 3.52124023 16.71728516 C3.38162585 22.36834341 3.38162585 22.36834341 1.75390625 25.0625 C0.0625 26.375 0.0625 26.375 -1.85546875 27.5390625 C-5.66870457 30.13678599 -8.16643374 34.00319842 -10.984375 37.609375 C-13 40 -13 40 -16 42 C-14.70051302 39.19338396 -13.27446717 36.95117502 -11.25 34.6171875 C-10.46109375 33.70259766 -10.46109375 33.70259766 -9.65625 32.76953125 C-9.1096875 32.14433594 -8.563125 31.51914062 -8 30.875 C-7.4534375 30.24207031 -6.906875 29.60914063 -6.34375 28.95703125 C-4.27933167 26.57384244 -2.23028116 24.23028116 0 22 C0.27765416 19.67182795 0.27765416 19.67182795 0.1953125 16.9921875 C0.18886719 16.00605469 0.18242187 15.01992188 0.17578125 14.00390625 C0.15902344 12.97136719 0.14226562 11.93882812 0.125 10.875 C0.11597656 9.83472656 0.10695313 8.79445313 0.09765625 7.72265625 C0.07403747 5.14820908 0.04110149 2.57421788 0 0 Z " fill="#32206F" transform="translate(292,324)"/>
<path d="M0 0 C3 2 3 2 5 4 C4.67 4.66 4.34 5.32 4 6 C2.0625 5.625 2.0625 5.625 0 5 C-0.33 4.34 -0.66 3.68 -1 3 C-6.4883621 2.72093074 -9.3888663 2.74508209 -14 6 C-14.66 6 -15.32 6 -16 6 C-16.2578125 6.58265625 -16.515625 7.1653125 -16.78125 7.765625 C-18.09834017 10.1802903 -19.55088384 11.81740177 -21.5 13.75 C-22.41265625 14.67039062 -22.41265625 14.67039062 -23.34375 15.609375 C-25 17 -25 17 -27 17 C-23.9500241 10.02862651 -17.47044388 4.76188598 -11 1 C-7.29455389 -0.2351487 -3.85094809 -0.576893 0 0 Z " fill="#120C25" transform="translate(282,308)"/>
<path d="M0 0 C-24.41782843 14.31030628 -24.41782843 14.31030628 -36 13 C-38.9375 11.75 -38.9375 11.75 -41 10 C-41.8125 7.8125 -41.8125 7.8125 -42 6 C-41.34 6 -40.68 6 -40 6 C-40 6.66 -40 7.32 -40 8 C-35.21648476 10.82968507 -30.40375066 10.40723918 -25 10 C-21.63178728 9.10202887 -21.63178728 9.10202887 -19 8 C-18.01 8 -17.02 8 -16 8 C-15.67 7.01 -15.34 6.02 -15 5 C-13.68 5 -12.36 5 -11 5 C-11 4.34 -11 3.68 -11 3 C-9.73581754 2.30034557 -8.46334598 1.61565237 -7.1875 0.9375 C-6.47980469 0.55464844 -5.77210938 0.17179688 -5.04296875 -0.22265625 C-3 -1 -3 -1 0 0 Z " fill="#5236AA" transform="translate(534,166)"/>
<path d="M0 0 C0.33 0.66 0.66 1.32 1 2 C-0.03222656 4.27490234 -0.03222656 4.27490234 -1.640625 7.0859375 C-2.50494141 8.60574219 -2.50494141 8.60574219 -3.38671875 10.15625 C-4.00160156 11.2184375 -4.61648438 12.280625 -5.25 13.375 C-5.84941406 14.42945313 -6.44882812 15.48390625 -7.06640625 16.5703125 C-12.53031756 26.11701342 -12.53031756 26.11701342 -15 29 C-15.66 29 -16.32 29 -17 29 C-15.69166571 24.59091345 -13.97608606 20.99650745 -11.5 17.125 C-10.8915625 16.15820312 -10.283125 15.19140625 -9.65625 14.1953125 C-8.83640625 13.10863281 -8.83640625 13.10863281 -8 12 C-7.34 12 -6.68 12 -6 12 C-5.9175 11.29875 -5.835 10.5975 -5.75 9.875 C-4.7542489 6.05795412 -2.80840551 2.80840551 0 0 Z " fill="#3D23C3" transform="translate(325,468)"/>
<path d="M0 0 C0.69802734 -0.00966797 1.39605469 -0.01933594 2.11523438 -0.02929688 C5.07132049 0.01963542 7.08795551 0.10015055 9.53515625 1.83984375 C10.5625 3.4375 10.5625 3.4375 10.5625 5.4375 C11.8825 6.0975 13.2025 6.7575 14.5625 7.4375 C14.5625 8.4275 14.5625 9.4175 14.5625 10.4375 C12.52416576 9.1635411 10.52397874 7.82688077 8.5625 6.4375 C8.5625 5.7775 8.5625 5.1175 8.5625 4.4375 C-0.07124975 1.55958342 -10.22305274 2.97878536 -18.4375 6.4375 C-18.4375 5.7775 -18.4375 5.1175 -18.4375 4.4375 C-12.35127922 1.16030419 -6.82656669 0.03088944 0 0 Z " fill="#2A1C55" transform="translate(458.4375,191.5625)"/>
<path d="M0 0 C1 2 1 2 0.44140625 3.9453125 C0.15136719 4.66460937 -0.13867188 5.38390625 -0.4375 6.125 C-0.72496094 6.84945313 -1.01242187 7.57390625 -1.30859375 8.3203125 C-1.53675781 8.87460937 -1.76492188 9.42890625 -2 10 C-2.66 10 -3.32 10 -4 10 C-4.03738281 10.58007812 -4.07476562 11.16015625 -4.11328125 11.7578125 C-4.76494778 19.50114417 -7.47748703 24.66848185 -12 31 C-12.33 31 -12.66 31 -13 31 C-12.67 28.69 -12.34 26.38 -12 24 C-11.34 24 -10.68 24 -10 24 C-9.84144531 23.2265625 -9.68289063 22.453125 -9.51953125 21.65625 C-8.17940783 15.67382059 -6.72809001 10.75392226 -3.18359375 5.71875 C-1.92147238 3.88596649 -0.95514933 2.00713408 0 0 Z " fill="#3B2694" transform="translate(464,281)"/>
<path d="M0 0 C0.66 0.33 1.32 0.66 2 1 C0.77023437 2.08667969 0.77023437 2.08667969 -0.484375 3.1953125 C-1.57322915 4.17152657 -2.66175332 5.14810879 -3.75 6.125 C-4.28882813 6.599375 -4.82765625 7.07375 -5.3828125 7.5625 C-8.07517024 9.9921887 -10.31820593 12.29431196 -12.265625 15.3671875 C-12.83796875 16.23601562 -13.4103125 17.10484375 -14 18 C-14.66 18 -15.32 18 -16 18 C-16.23460937 18.54140625 -16.46921875 19.0828125 -16.7109375 19.640625 C-18.3583644 22.65591544 -20.42653344 25.11184012 -22.625 27.75 C-23.85089844 29.22726562 -23.85089844 29.22726562 -25.1015625 30.734375 C-26.04128906 31.85585938 -26.04128906 31.85585938 -27 33 C-27.33 32.34 -27.66 31.68 -28 31 C-27.39671875 30.27554687 -26.7934375 29.55109375 -26.171875 28.8046875 C-21.19826572 22.91080133 -21.19826572 22.91080133 -16.75 16.625 C-12.40254111 10.10381166 -5.81534044 5.18299274 0 0 Z " fill="#422B9D" transform="translate(367,322)"/>
<path d="M0 0 C-10.45901639 6.75908767 -10.45901639 6.75908767 -16 7 C-16.64839844 7.03738281 -17.29679688 7.07476562 -17.96484375 7.11328125 C-22.12007226 7.26030051 -25.27679318 6.86160341 -29 5 C-29 4.01 -29 3.02 -29 2 C-28.34 2.66 -27.68 3.32 -27 4 C-19.38119548 5.2971083 -13.42499259 3.33531594 -6.62890625 -0.00390625 C-3.82276693 -1.06715369 -2.74152816 -1.08235272 0 0 Z " fill="#180F35" transform="translate(193,410)"/>
<path d="M0 0 C2.14075469 4.28150937 -0.74040781 10.58056878 -2 15 C-2.5775 16.03125 -3.155 17.0625 -3.75 18.125 C-5.73853462 22.69862964 -4.71444607 27.16242537 -4 32 C-6 31 -6 31 -7 28 C-7.88949076 17.51228334 -4.47006924 9.28136514 0 0 Z " fill="#493282" transform="translate(352,157)"/>
<path d="M0 0 C3.375 0.8125 3.375 0.8125 6 2 C6.33 2.99 6.66 3.98 7 5 C2.38 4.01 -2.24 3.02 -7 2 C-7.33 2.99 -7.66 3.98 -8 5 C-9.65848177 6.01351664 -11.32665961 7.01120795 -13 8 C-14.68662458 9.64646685 -16.35511706 11.31183067 -18 13 C-18.99 13.66 -19.98 14.32 -21 15 C-19.60632839 10.31219551 -16.97555542 7.72878218 -13.3125 4.6875 C-12.55549805 4.0059082 -12.55549805 4.0059082 -11.78320312 3.31054688 C-7.81459282 -0.02589542 -5.0872635 -0.52730175 0 0 Z " fill="#34254E" transform="translate(173,117)"/>
<path d="M0 0 C0 3.28394091 -0.57930459 4.43985316 -2.1171875 7.2734375 C-2.55933594 8.0984375 -3.00148437 8.9234375 -3.45703125 9.7734375 C-3.92496094 10.63195312 -4.39289063 11.49046875 -4.875 12.375 C-5.7913436 14.06908061 -6.70547525 15.76435992 -7.6171875 17.4609375 C-8.02565918 18.21165527 -8.43413086 18.96237305 -8.85498047 19.73583984 C-10.05561275 22.10996859 -11.04667904 24.51742752 -12 27 C-12.66 27 -13.32 27 -14 27 C-14.33 27.99 -14.66 28.98 -15 30 C-13.85700619 21.14179798 -8.61059573 13.42613286 -4 6 C-3.46503906 5.09765625 -2.93007812 4.1953125 -2.37890625 3.265625 C-1 1 -1 1 0 0 Z " fill="#38256F" transform="translate(185,329)"/>
<path d="M0 0 C2.40593035 1.06930238 4.25620188 2.20773125 6.3125 3.875 C14.16096418 10.08076238 20.0292078 10.72341769 30 11 C30 11.33 30 11.66 30 12 C22.53910495 13.17728952 15.83745898 13.63787882 9 10 C5.68558461 7.25771584 2.73728647 4.31912514 0 1 C0 0.67 0 0.34 0 0 Z " fill="#7854C4" transform="translate(175,187)"/>
<path d="M0 0 C0 4.30967916 -2.16725288 5.89746745 -5 9 C-8.47988558 10.73994279 -12.2043407 10.5976415 -16 10 C-18.45650135 8.57493025 -19.99181597 7.05967593 -22 5 C-21.67 4.34 -21.34 3.68 -21 3 C-19.7315625 3.99 -19.7315625 3.99 -18.4375 5 C-14.35150406 7.37730673 -12.64424396 7.88080489 -8 7 C-5.06426021 4.92073263 -2.51776308 2.56354059 0 0 Z " fill="#261A48" transform="translate(371,189)"/>
<path d="M0 0 C0 5.71289801 -3.1423416 10.32170495 -6.0625 15.0625 C-8.25566897 18.62707983 -9.92628817 21.91989506 -11 26 C-11.66 26 -12.32 26 -13 26 C-11.16998187 18.45518843 -8.19278748 12.49663684 -4 6 C-3.46375 5.09894531 -2.9275 4.19789063 -2.375 3.26953125 C-1 1 -1 1 0 0 Z " fill="#583D98" transform="translate(367,130)"/>
<path d="M0 0 C0.886875 0.825 1.77375 1.65 2.6875 2.5 C7.95484701 6.2869114 13.79321809 5.61522681 20 5 C22.48889564 4.51683755 24.61744683 3.88653141 27 3 C27 3.66 27 4.32 27 5 C19.97127943 8.18281686 12.79964827 9.57919462 5.28125 7.10546875 C2.60595409 5.80904967 1.50707562 4.53823262 0 2 C0 1.34 0 0.68 0 0 Z " fill="#140A52" transform="translate(300,556)"/>
<path d="M0 0 C1.28197266 -0.00386719 1.28197266 -0.00386719 2.58984375 -0.0078125 C4.88930852 0.11569746 6.85890348 0.48079313 9.0625 1.125 C9.0625 1.785 9.0625 2.445 9.0625 3.125 C9.7225 3.125 10.3825 3.125 11.0625 3.125 C11.7225 4.445 12.3825 5.765 13.0625 7.125 C11.0825 6.465 9.1025 5.805 7.0625 5.125 C7.0625 4.465 7.0625 3.805 7.0625 3.125 C1.7825 3.125 -3.4975 3.125 -8.9375 3.125 C-7.10992424 -0.53015153 -3.65310295 -0.01098678 0 0 Z " fill="#513891" transform="translate(276.9375,211.875)"/>
<path d="M0 0 C1.66954676 4.04152477 0.18486125 7.31496011 -1.25 11.1875 C-1.46785156 11.82880859 -1.68570312 12.47011719 -1.91015625 13.13085938 C-2.578125 14.98046875 -2.578125 14.98046875 -4 18 C-4.99 18.33 -5.98 18.66 -7 19 C-7.70381157 20.98723268 -8.3711811 22.98777953 -9 25 C-9.66 25.33 -10.32 25.66 -11 26 C-10.39294514 21.87202695 -9.06000669 18.62561178 -7 15 C-6.34 14.67 -5.68 14.34 -5 14 C-4.0416631 11.65062258 -3.18214554 9.33781945 -2.375 6.9375 C-2.14554687 6.27427734 -1.91609375 5.61105469 -1.6796875 4.92773438 C-1.11324224 3.28740331 -0.55577077 1.64397843 0 0 Z " fill="#4B2FC0" transform="translate(395,339)"/>
<path d="M0 0 C0 3 0 3 -0.98828125 4.69140625 C-2.45988053 8.0493799 -2.24980284 11.34033064 -2.1875 14.9375 C-2.18685547 15.64068359 -2.18621094 16.34386719 -2.18554688 17.06835938 C-2.15381877 20.82990266 -1.8945001 24.34328359 -1 28 C-3.9575872 25.55677579 -4.42595095 23.73400132 -5 20 C-5.54647826 12.96934706 -5.07368396 7.38380514 -2 1 C-1.34 0.67 -0.68 0.34 0 0 Z " fill="#36246A" transform="translate(493,144)"/>
<path d="M0 0 C0.33 0.66 0.66 1.32 1 2 C0.11699219 2.04898438 -0.76601563 2.09796875 -1.67578125 2.1484375 C-9.25029197 2.62031894 -16.57192807 3.43858896 -24 5 C-22.59928816 2.19857632 -20.58919909 1.63530333 -17.7421875 0.59765625 C-11.95449147 -0.66376468 -5.89227135 -0.20715016 0 0 Z " fill="#5C3DBA" transform="translate(464,194)"/>
<path d="M0 0 C0.33 0.66 0.66 1.32 1 2 C0.67 2.99 0.34 3.98 0 5 C-0.4607278 11.56537112 0.86772311 16.80624331 3 23 C1.5 21.6875 1.5 21.6875 0 20 C0 19.01 0 18.02 0 17 C-0.66 17 -1.32 17 -2 17 C-3.06987652 13.79037044 -3.20081156 11.31100738 -3.25 7.9375 C-3.27578125 6.87402344 -3.3015625 5.81054688 -3.328125 4.71484375 C-3.21984375 3.81894531 -3.1115625 2.92304688 -3 2 C-2.01 1.34 -1.02 0.68 0 0 Z " fill="#382753" transform="translate(151,134)"/>
<path d="M0 0 C0.66 0 1.32 0 2 0 C0.4842736 7.39378729 -1.13768278 14.05328109 -6 20 C-6.33 20 -6.66 20 -7 20 C-7.54312266 15.00521128 -5.65593995 11.53683831 -3.5 7.1875 C-3.16613281 6.49462891 -2.83226562 5.80175781 -2.48828125 5.08789062 C-1.66750983 3.38772125 -0.83491891 1.69326667 0 0 Z " fill="#3F27B0" transform="translate(432,352)"/>
<path d="M0 0 C0.33 0 0.66 0 1 0 C0.74195393 5.92215738 0.28803726 9.585844 -4 14 C-5.00573778 15.32901064 -6.00795408 16.66073801 -7 18 C-7.50710303 13.19157661 -5.83930651 10.32305971 -3.5 6.1875 C-3.16613281 5.59001953 -2.83226562 4.99253906 -2.48828125 4.37695312 C-1.66827367 2.91265388 -0.83540688 1.45556863 0 0 Z " fill="#2C1993" transform="translate(390,443)"/>
<path d="M0 0 C0.66 0 1.32 0 2 0 C1.40919773 4.03350194 0.10143883 6.92294774 -1.9375 10.4375 C-4.07271223 14.22660564 -5.85816149 17.7751975 -7 22 C-7.33 22 -7.66 22 -8 22 C-7.48053489 16.37368074 -5.93544322 12.10290424 -3.4375 7.0625 C-3.10814453 6.37865234 -2.77878906 5.69480469 -2.43945312 4.99023438 C-1.63482961 3.32268129 -0.8186103 1.66073161 0 0 Z " fill="#452AC9" transform="translate(423,372)"/>
<path d="M0 0 C0 0.99 0 1.98 0 3 C-0.99 3.66 -1.98 4.32 -3 5 C-3.268125 5.70125 -3.53625 6.4025 -3.8125 7.125 C-5.51991566 11.25874318 -8.24343074 14.50661191 -11 18 C-12 16 -12 16 -11.27734375 13.66796875 C-9.95494332 10.9058908 -8.45787475 8.71330802 -6.5625 6.3125 C-5.66724609 5.16201172 -5.66724609 5.16201172 -4.75390625 3.98828125 C-3 2 -3 2 0 0 Z " fill="#332081" transform="translate(326,374)"/>
<path d="M0 0 C1.55074219 0.00966797 1.55074219 0.00966797 3.1328125 0.01953125 C5.875 0.1875 5.875 0.1875 8.875 1.1875 C8.875 1.8475 8.875 2.5075 8.875 3.1875 C7.94558594 3.17589844 7.01617187 3.16429687 6.05859375 3.15234375 C-3.08209317 3.06996463 -3.08209317 3.06996463 -12.125 4.1875 C-11.125 2.1875 -11.125 2.1875 -8.9453125 1.07421875 C-5.81087038 0.08873626 -3.27914771 -0.04520128 0 0 Z " fill="#4F34BB" transform="translate(383.125,315.8125)"/>
<path d="M0 0 C0.99 0.845625 1.98 1.69125 3 2.5625 C3.95326172 3.37460938 3.95326172 3.37460938 4.92578125 4.203125 C6.33528849 5.42416705 7.72814034 6.66464758 9.10546875 7.921875 C9.79253906 8.54578125 10.47960937 9.1696875 11.1875 9.8125 C11.82042969 10.39644531 12.45335937 10.98039063 13.10546875 11.58203125 C15.09840388 13.07365074 16.56731861 13.58466415 19 14 C19 14.66 19 15.32 19 16 C19.66 16.33 20.32 16.66 21 17 C15.44872377 16.13646814 12.27084089 15.63820668 8.625 11.25 C6.52224374 8.75883654 4.424199 6.37231472 2.0625 4.125 C0 2 0 2 0 0 Z " fill="#2C1F47" transform="translate(171,184)"/>
<path d="M0 0 C0.90425047 2.4727343 1.14783226 3.61915593 0.1796875 6.11328125 C-0.25085938 6.83902344 -0.68140625 7.56476563 -1.125 8.3125 C-1.58519531 9.09109375 -2.04539062 9.8696875 -2.51953125 10.671875 C-4.5604889 13.88140207 -6.72827472 16.94939748 -9 20 C-9.33 19.34 -9.66 18.68 -10 18 C-7.38467454 11.64713671 -4.02174746 5.5685734 0 0 Z " fill="#170C55" transform="translate(368,491)"/>
<path d="M0 0 C0.66 0 1.32 0 2 0 C0.23703704 5.54074074 0.23703704 5.54074074 -1 7.9375 C-2.40965131 10.84490583 -3.12795401 13.89333616 -4 17 C-4.64199649 18.67632417 -5.29894157 20.34750513 -6 22 C-7.0607354 18.78893024 -6.94904546 16.97982721 -5.8125 13.8125 C-5.5340625 13.03648437 -5.255625 12.26046875 -4.96875 11.4609375 C-3.44140047 7.58097699 -1.76014971 3.77940776 0 0 Z " fill="#4028A9" transform="translate(445,323)"/>
<path d="M0 0 C2.89357708 1.29712076 5.03252418 2.48785574 7 5 C7.36328125 7.55859375 7.36328125 7.55859375 7.3125 10.4375 C7.30863281 11.38496094 7.30476563 12.33242188 7.30078125 13.30859375 C6.99934156 16.00589177 6.37375963 17.68485928 5 20 C4.06443826 16.90050539 4.00195957 14.34437721 4.1875 11.125 C4.26921331 6.10334581 3.20223127 3.80264964 0 0 Z " fill="#4F33C3" transform="translate(392,319)"/>
<path d="M0 0 C2.5 2.5 2.5 2.5 4 5 C3.01 4.67 2.02 4.34 1 4 C-0.66368258 3.88233824 -2.33220803 3.82490917 -4 3.8125 C-4.86625 3.79832031 -5.7325 3.78414063 -6.625 3.76953125 C-9.26721537 3.83744062 -9.26721537 3.83744062 -12 6 C-9.76724227 -0.21982511 -6.56539593 -1.21965853 0 0 Z " fill="#543B8C" transform="translate(398,95)"/>
<path d="M0 0 C0.33 0.99 0.66 1.98 1 3 C0.34 3.66 -0.32 4.32 -1 5 C-1.226875 5.7425 -1.45375 6.485 -1.6875 7.25 C-3.56588912 11.18567243 -6.60425 13.35785227 -10 16 C-10.66 15.67 -11.32 15.34 -12 15 C-10.71937515 13.2925002 -9.38232443 11.62626404 -8 10 C-7.34 10 -6.68 10 -6 10 C-5.7525 9.46375 -5.505 8.9275 -5.25 8.375 C-3.70303025 5.43575748 -1.86985631 2.74245592 0 0 Z " fill="#352277" transform="translate(217,384)"/>
<path d="M0 0 C2.1875 0.3125 2.1875 0.3125 4 1 C3.175 1.515625 2.35 2.03125 1.5 2.5625 C-3.3254444 5.78328355 -8.18695241 9.50651082 -11.61328125 14.21875 C-12.07089844 14.8065625 -12.52851563 15.394375 -13 16 C-13.66 16 -14.32 16 -15 16 C-13.46518706 12.19331705 -11.13477919 10.1037511 -8.0625 7.4375 C-4.58315313 4.43258824 -4.58315313 4.43258824 -1.3203125 1.203125 C-0.88460938 0.80609375 -0.44890625 0.4090625 0 0 Z " fill="#26195B" transform="translate(371,320)"/>
<path d="M0 0 C0.66 0.33 1.32 0.66 2 1 C1.55269531 1.37511719 1.10539062 1.75023437 0.64453125 2.13671875 C-2.20679363 4.55031358 -4.950147 6.94893107 -7.5625 9.625 C-10.22217563 12.21647882 -12.86376372 14.03073536 -16 16 C-14.59473786 12.72344492 -12.97082527 10.84567314 -10.25 8.5625 C-9.19039063 7.6653125 -9.19039063 7.6653125 -8.109375 6.75 C-7.41328125 6.1725 -6.7171875 5.595 -6 5 C-5.38640625 4.484375 -4.7728125 3.96875 -4.140625 3.4375 C-2.76577406 2.28524397 -1.38373037 1.14157756 0 0 Z " fill="#3C287B" transform="translate(405,227)"/>
<path d="M0 0 C3 1 3 1 4 3 C6.34907875 3.68931344 6.34907875 3.68931344 9.0625 4.125 C9.98160156 4.29257813 10.90070313 4.46015625 11.84765625 4.6328125 C12.91306641 4.81457031 12.91306641 4.81457031 14 5 C14 4.34 14 3.68 14 3 C15.65 2.67 17.3 2.34 19 2 C16.28059718 5.29624584 14.85251444 6.86049764 10.5625 7.5625 C6.4095926 6.90677778 4.21421748 5.67851457 1 3 C0.67 2.01 0.34 1.02 0 0 Z " fill="#6A48C3" transform="translate(349,190)"/>
<path d="M0 0 C0.66 0.33 1.32 0.66 2 1 C1.33613281 1.59167969 0.67226563 2.18335937 -0.01171875 2.79296875 C-5.62790015 7.76849791 -5.62790015 7.76849791 -10.9375 13.0625 C-13 15 -13 15 -16 15 C-14.08643227 13.05935348 -12.16932062 11.122443 -10.25 9.1875 C-9.71117187 8.64029297 -9.17234375 8.09308594 -8.6171875 7.52929688 C-5.88259137 4.77802637 -3.20316096 2.21577882 0 0 Z " fill="#6041B8" transform="translate(512,125)"/>
<path d="M0 0 C3 2 3 2 5 4 C4.67 4.66 4.34 5.32 4 6 C2.0625 5.625 2.0625 5.625 0 5 C-0.33 4.34 -0.66 3.68 -1 3 C-3.35599235 2.53248212 -3.35599235 2.53248212 -6.0625 2.375 C-6.98160156 2.30023438 -7.90070313 2.22546875 -8.84765625 2.1484375 C-9.55792969 2.09945313 -10.26820313 2.05046875 -11 2 C-7.32209331 -0.45193779 -4.27407725 -0.71511798 0 0 Z " fill="#33226A" transform="translate(282,308)"/>
<path d="M0 0 C5.65860333 -0.3464451 9.08079765 0.39571641 14 3 C14.99 4.485 14.99 4.485 16 6 C15.443125 5.7834375 14.88625 5.566875 14.3125 5.34375 C8.94811407 3.38647405 4.70147617 2.68901039 -1 3 C-0.67 2.01 -0.34 1.02 0 0 Z " fill="#7352AC" transform="translate(166,119)"/>
<path d="M0 0 C0.33 0.66 0.66 1.32 1 2 C0.37915039 3.69580078 0.37915039 3.69580078 -0.65234375 5.6953125 C-1.01650391 6.41074219 -1.38066406 7.12617188 -1.75585938 7.86328125 C-2.14580078 8.60964844 -2.53574219 9.35601562 -2.9375 10.125 C-3.32357422 10.87910156 -3.70964844 11.63320313 -4.10742188 12.41015625 C-5.06452132 14.27709097 -6.03136106 16.13902628 -7 18 C-8.17482324 14.52545194 -8.06339535 14.1324858 -6.34765625 10.546875 C-5.59841315 9.27382478 -4.83617987 8.00834874 -4.0625 6.75 C-3.67642578 6.1003125 -3.29035156 5.450625 -2.89257812 4.78125 C-1.93941582 3.18087871 -0.97114076 1.5895258 0 0 Z " fill="#190F53" transform="translate(399,429)"/>
<path d="M0 0 C0.66 0 1.32 0 2 0 C3.20250158 2.24307028 4.3869162 4.4928791 5.5625 6.75 C6.07586914 7.70132813 6.07586914 7.70132813 6.59960938 8.671875 C9.09168309 13.50498766 9.09168309 13.50498766 8.58959961 16.21582031 C8.39503174 16.80459961 8.20046387 17.39337891 8 18 C6.66180502 15.3773768 5.3292849 12.75213401 4 10.125 C3.6184375 9.37863281 3.236875 8.63226563 2.84375 7.86328125 C2.4828125 7.14785156 2.121875 6.43242187 1.75 5.6953125 C1.41484375 5.03547363 1.0796875 4.37563477 0.734375 3.69580078 C0 2 0 2 0 0 Z " fill="#3F2C62" transform="translate(206,154)"/>
<path d="M0 0 C0.75 1.5625 0.75 1.5625 1 4 C-0.65135896 8.02967486 -2.3524487 10.56829914 -6 13 C-5.26083824 7.97370003 -3.63107238 3.63107238 0 0 Z " fill="#4C357F" transform="translate(379,107)"/>
<path d="M0 0 C0.66 0.33 1.32 0.66 2 1 C0.75796305 2.46512126 -0.49397056 3.92185645 -1.75 5.375 C-2.44609375 6.18710938 -3.1421875 6.99921875 -3.859375 7.8359375 C-5.85949643 9.85795807 -7.39531129 10.93231229 -10 12 C-8.43873668 8.16780823 -5.97133075 5.82638778 -3 3 C-2.401875 2.401875 -1.80375 1.80375 -1.1875 1.1875 C-0.795625 0.795625 -0.40375 0.40375 0 0 Z " fill="#8861CC" transform="translate(162,122)"/>
<path d="M0 0 C0.33 0 0.66 0 1 0 C1.125 7.75 1.125 7.75 0 10 C-0.66 10 -1.32 10 -2 10 C-2.12375 10.94875 -2.2475 11.8975 -2.375 12.875 C-3 16 -3 16 -5 18 C-4.38388165 13.68068613 -3.35761422 9.74791225 -1.9375 5.625 C-1.57527344 4.56539062 -1.21304687 3.50578125 -0.83984375 2.4140625 C-0.56269531 1.61742187 -0.28554688 0.82078125 0 0 Z " fill="#35227A" transform="translate(477,243)"/>
<path d="M0 0 C0.66 0 1.32 0 2 0 C0.62712658 3.69876091 -1.06355453 6.9514476 -3.125 10.3125 C-3.66382813 11.19550781 -4.20265625 12.07851563 -4.7578125 12.98828125 C-5.37269531 13.98408203 -5.37269531 13.98408203 -6 15 C-6.64453125 13.21875 -6.64453125 13.21875 -7 11 C-6.07421875 9.21875 -6.07421875 9.21875 -4.6875 7.5 C-2.812936 5.07868816 -1.24117742 2.82085777 0 0 Z " fill="#201364" transform="translate(334,449)"/>
<path d="M0 0 C0.66 0 1.32 0 2 0 C-1.09990301 10.09117362 -1.09990301 10.09117362 -4 14 C-4.66 14 -5.32 14 -6 14 C-4.50829734 9.0276578 -2.39542583 4.58154261 0 0 Z " fill="#2B1C5D" transform="translate(239,346)"/>
<path d="M0 0 C0.33 0.66 0.66 1.32 1 2 C0.328125 3.953125 0.328125 3.953125 -0.75 6.25 C-1.12125 7.04792969 -1.4925 7.84585938 -1.875 8.66796875 C-3.22195704 11.46009845 -4.58537045 14.24147237 -6 17 C-6.66 17 -7.32 17 -8 17 C-6.51095825 13.10391502 -4.75621287 9.40902982 -2.875 5.6875 C-2.06675781 4.08455078 -2.06675781 4.08455078 -1.2421875 2.44921875 C-0.62730469 1.23685547 -0.62730469 1.23685547 0 0 Z " fill="#3A2867" transform="translate(399,143)"/>
<path d="M0 0 C1.70884005 1.62339805 3.37446717 3.29319053 5 5 C5 5.66 5 6.32 5 7 C5.99 7.33 6.98 7.66 8 8 C7.67 9.32 7.34 10.64 7 12 C6.67 11.01 6.34 10.02 6 9 C5.01 8.67 4.02 8.34 3 8 C0.2332241 5.02827774 0 4.25809375 0 0 Z " fill="#573D87" transform="translate(198,142)"/>
<path d="M0 0 C0 0.66 0 1.32 0 2 C-1.93697967 2.33634376 -3.87460486 2.66897165 -5.8125 3 C-7.43091797 3.2784375 -7.43091797 3.2784375 -9.08203125 3.5625 C-12 4 -12 4 -15 4 C-10.44224642 -0.86160382 -6.22129884 -0.43488691 0 0 Z " fill="#160F27" transform="translate(281,210)"/>
<path d="M0 0 C0.33 0.66 0.66 1.32 1 2 C0.109375 4.56640625 0.109375 4.56640625 -1.25 7.5625 C-1.68828125 8.55378906 -2.1265625 9.54507812 -2.578125 10.56640625 C-4 13 -4 13 -7 14 C-2.45 2.45 -2.45 2.45 0 0 Z " fill="#231477" transform="translate(307,497)"/>
<path d="M0 0 C1.0169313 2.65498232 1.13022151 3.69155375 0.00390625 6.359375 C-0.47175781 7.14828125 -0.94742187 7.9371875 -1.4375 8.75 C-2.14712891 9.94882812 -2.14712891 9.94882812 -2.87109375 11.171875 C-3.24363281 11.77515625 -3.61617188 12.3784375 -4 13 C-4.86443295 10.5653629 -5.12994709 9.36863937 -4.2578125 6.89453125 C-3.88398438 6.20746094 -3.51015625 5.52039063 -3.125 4.8125 C-2.57199219 3.77029297 -2.57199219 3.77029297 -2.0078125 2.70703125 C-1 1 -1 1 0 0 Z " fill="#180E4D" transform="translate(405,416)"/>
<path d="M0 0 C0.6875 1.6875 0.6875 1.6875 1 4 C0.05988318 5.70116376 -0.94895617 7.36504293 -2 9 C-2.71143088 10.98451771 -3.38991336 12.98202112 -4 15 C-4.66 15 -5.32 15 -6 15 C-3.10933941 4.44191344 -3.10933941 4.44191344 0 0 Z " fill="#1D1155" transform="translate(421,381)"/>
<path d="M0 0 C0.98120464 3.05263664 0.98120464 4.94736336 0 8 C-0.66 8 -1.32 8 -2 8 C-2.12375 8.78375 -2.2475 9.5675 -2.375 10.375 C-3 13 -3 13 -5 15 C-4.31779879 9.40595005 -2.50643494 5.01286988 0 0 Z " fill="#432D8A" transform="translate(169,359)"/>
<path d="M0 0 C0 3.88091967 -1.65317733 6.39673296 -3.5 9.6875 C-3.83386719 10.29400391 -4.16773438 10.90050781 -4.51171875 11.52539062 C-5.335537 13.02003231 -6.16703451 14.51043671 -7 16 C-7.67578125 14.3203125 -7.67578125 14.3203125 -8 12 C-6.85546875 9.4921875 -6.85546875 9.4921875 -5.1875 6.875 C-4.64480469 6.00617188 -4.10210937 5.13734375 -3.54296875 4.2421875 C-2 2 -2 2 0 0 Z " fill="#4A3191" transform="translate(185,329)"/>
<path d="M0 0 C3.2626876 3.08632611 6.02235218 5.93483504 8 10 C7.67 10.66 7.34 11.32 7 12 C5.821389 10.76125579 4.65747085 9.5085199 3.5 8.25 C2.8503125 7.55390625 2.200625 6.8578125 1.53125 6.140625 C0 4 0 4 0 0 Z " fill="#392859" transform="translate(163,172)"/>
<path d="M0 0 C0.98464547 2.6078186 1.1236295 3.68962214 0.07421875 6.32421875 C-0.38339844 7.10410156 -0.84101563 7.88398438 -1.3125 8.6875 C-1.98732422 9.86892578 -1.98732422 9.86892578 -2.67578125 11.07421875 C-4 13 -4 13 -6 14 C-5.41892368 10.2397015 -4.34800504 7.46964968 -2.4375 4.1875 C-1.98246094 3.39730469 -1.52742188 2.60710937 -1.05859375 1.79296875 C-0.53458984 0.90544922 -0.53458984 0.90544922 0 0 Z " fill="#3E2B6D" transform="translate(406,129)"/>
<path d="M0 0 C0.77734375 1.671875 0.77734375 1.671875 1 4 C-0.87109375 6.578125 -0.87109375 6.578125 -3.4375 9.25 C-4.70400391 10.58804688 -4.70400391 10.58804688 -5.99609375 11.953125 C-6.65738281 12.62859375 -7.31867188 13.3040625 -8 14 C-8.66 13.67 -9.32 13.34 -10 13 C-9.16855469 11.96939453 -9.16855469 11.96939453 -8.3203125 10.91796875 C-7.59585937 10.01691406 -6.87140625 9.11585938 -6.125 8.1875 C-5.40570313 7.29417969 -4.68640625 6.40085937 -3.9453125 5.48046875 C-1.92059294 2.96429047 -1.92059294 2.96429047 0 0 Z " fill="#170C5F" transform="translate(337,545)"/>
<path d="M0 0 C1 2 1 2 0.25 4.875 C-0.89311592 7.73278981 -1.92230951 9.74916863 -4 12 C-4.66 12 -5.32 12 -6 12 C-4.68139111 7.38486888 -2.78644563 3.90102388 0 0 Z " fill="#321DA3" transform="translate(314,485)"/>
<path d="M0 0 C0 3.89503418 -0.82280073 6.77571276 -3.5625 9.625 C-4.036875 10.07875 -4.51125 10.5325 -5 11 C-5.33 11.99 -5.66 12.98 -6 14 C-6.66 14 -7.32 14 -8 14 C-6.6744419 10.37723685 -5.05653045 7.36494652 -2.875 4.1875 C-2.33617187 3.39730469 -1.79734375 2.60710937 -1.2421875 1.79296875 C-0.83226562 1.20128906 -0.42234375 0.60960937 0 0 Z " fill="#5E40B2" transform="translate(205,294)"/>
<path d="M0 0 C0.66 0 1.32 0 2 0 C1.375 1.875 1.375 1.875 0 4 C-3.75263725 5.66783878 -6.91226018 6.24045528 -11 6 C-7.78984138 3.85989425 -4.54209032 2.5086681 -1 1 C-0.67 0.67 -0.34 0.34 0 0 Z " fill="#3119C7" transform="translate(328,554)"/>
<path d="M0 0 C0 3.68553144 -0.8522582 5.03759752 -3 8 C-5.6875 9.8125 -5.6875 9.8125 -8 11 C-6.63629701 8.00779732 -5.05091917 5.70973471 -2.875 3.25 C-2.33617187 2.63640625 -1.79734375 2.0228125 -1.2421875 1.390625 C-0.62730469 0.70226562 -0.62730469 0.70226562 0 0 Z " fill="#4E33B8" transform="translate(274,369)"/>
<path d="M0 0 C0.93045933 2.55144824 1.08564091 3.74006478 0.22265625 6.359375 C-0.16019531 7.14828125 -0.54304688 7.9371875 -0.9375 8.75 C-1.50791016 9.94882812 -1.50791016 9.94882812 -2.08984375 11.171875 C-2.39019531 11.77515625 -2.69054687 12.3784375 -3 13 C-4.10096216 9.73381227 -3.9223497 7.98446051 -2.625 4.8125 C-2.34914063 4.11769531 -2.07328125 3.42289062 -1.7890625 2.70703125 C-1 1 -1 1 0 0 Z " fill="#201357" transform="translate(437,345)"/>
<path d="M0 0 C0.86625 0.3403125 0.86625 0.3403125 1.75 0.6875 C-3.875 5.6875 -3.875 5.6875 -7.25 5.6875 C-5.99519591 1.92308774 -4.25905546 -0.59153548 0 0 Z " fill="#6546B3" transform="translate(268.25,215.3125)"/>
<path d="M0 0 C5.78461538 4.18461538 5.78461538 4.18461538 6.875 8.3125 C6.936875 9.6428125 6.936875 9.6428125 7 11 C4.66666667 8.66666667 2.33333333 6.33333333 0 4 C0 2.68 0 1.36 0 0 Z " fill="#563C91" transform="translate(402,100)"/>
<path d="M0 0 C0.68359375 1.703125 0.68359375 1.703125 1 4 C-0.21484375 6.359375 -0.21484375 6.359375 -1.9375 8.75 C-2.50339844 9.54921875 -3.06929688 10.3484375 -3.65234375 11.171875 C-4.09707031 11.77515625 -4.54179687 12.3784375 -5 13 C-5.33 12.01 -5.66 11.02 -6 10 C-5.04422943 8.63461347 -4.03647024 7.30518475 -3 6 C-2.30686092 4.34416775 -1.63525576 2.67889021 -1 1 C-0.67 0.67 -0.34 0.34 0 0 Z " fill="#3F25BE" transform="translate(338,445)"/>
<path d="M0 0 C1.010625 0.639375 2.02125 1.27875 3.0625 1.9375 C6.75219924 4.06848956 9.77860255 4.65539613 14 5 C14 5.33 14 5.66 14 6 C4.87743733 6.62674095 4.87743733 6.62674095 1.375 4.125 C0 2 0 2 0 0 Z " fill="#342361" transform="translate(349,192)"/>
<path d="M0 0 C0.88336837 2.4667645 1.1312406 3.63859372 0.22265625 6.140625 C-0.16019531 6.83671875 -0.54304688 7.5328125 -0.9375 8.25 C-1.31777344 8.95640625 -1.69804687 9.6628125 -2.08984375 10.390625 C-2.39019531 10.92171875 -2.69054687 11.4528125 -3 12 C-3.66 12 -4.32 12 -5 12 C-4.54738642 10.56068883 -4.08767021 9.12361001 -3.625 7.6875 C-3.24214844 6.48673828 -3.24214844 6.48673828 -2.8515625 5.26171875 C-2 3 -2 3 0 0 Z " fill="#150C4B" transform="translate(383,461)"/>
<path d="M0 0 C0 3.33156142 -0.45664761 5.06028115 -2 8 C-4.625 9.8125 -4.625 9.8125 -7 11 C-6.34 9.35 -5.68 7.7 -5 6 C-4.34 6 -3.68 6 -3 6 C-2.690625 5.195625 -2.38125 4.39125 -2.0625 3.5625 C-1 1 -1 1 0 0 Z " fill="#281878" transform="translate(343,436)"/>
<path d="M0 0 C1.65 1.32 3.3 2.64 5 4 C4.67 5.32 4.34 6.64 4 8 C2.35 6.35 0.7 4.7 -1 3 C-0.67 2.01 -0.34 1.02 0 0 Z " fill="#553B9E" transform="translate(295,225)"/>
<path d="M0 0 C2.70931419 0.15481795 4.46584039 0.48172081 6.4453125 2.40234375 C7.67679642 3.89771708 8.8429837 5.4462924 10 7 C9.67 7.66 9.34 8.32 9 9 C7.49704815 7.69088122 5.99770689 6.37761608 4.5 5.0625 C3.6646875 4.33160156 2.829375 3.60070312 1.96875 2.84765625 C1.3190625 2.23792969 0.669375 1.62820312 0 1 C0 0.67 0 0.34 0 0 Z " fill="#271A4B" transform="translate(545,113)"/>
<path d="M0 0 C0.75 1.5625 0.75 1.5625 1 4 C-0.13084437 6.50286409 -1.52139516 8.67007722 -3 11 C-3.75 9.4375 -3.75 9.4375 -4 7 C-2.86915563 4.49713591 -1.47860484 2.32992278 0 0 Z " fill="#1B1052" transform="translate(410,405)"/>
<path d="M0 0 C0.6875 1.6875 0.6875 1.6875 1 4 C-0.25 6.6875 -0.25 6.6875 -2 9 C-2.99 9.33 -3.98 9.66 -5 10 C-3.66511872 6.40608886 -2.03977277 3.24509304 0 0 Z " fill="#1D123F" transform="translate(225,373)"/>
<path d="M0 0 C0.75 1.5625 0.75 1.5625 1 4 C-0.13084437 6.50286409 -1.52139516 8.67007722 -3 11 C-3.75 9.4375 -3.75 9.4375 -4 7 C-2.86915563 4.49713591 -1.47860484 2.32992278 0 0 Z " fill="#2A1B6F" transform="translate(388,354)"/>
<path d="M0 0 C0.33 0.66 0.66 1.32 1 2 C0.06553465 4.03144641 -0.93224776 6.03533587 -2 8 C-2.66 8 -3.32 8 -4 8 C-4.33 8.66 -4.66 9.32 -5 10 C-5 8.68 -5 7.36 -5 6 C-4.34 6 -3.68 6 -3 6 C-2.690625 5.195625 -2.38125 4.39125 -2.0625 3.5625 C-1 1 -1 1 0 0 Z " fill="#24184C" transform="translate(246,336)"/>
<path d="M0 0 C0 3.86695678 -1.41909971 6.5088452 -3 10 C-3.99928333 7.301935 -4.03624754 6.11989571 -3.1875 3.3125 C-2 1 -2 1 0 0 Z " fill="#3B23B8" transform="translate(402,420)"/>
<path d="M0 0 C0.66 0 1.32 0 2 0 C1.46930939 3.82097239 0.50298434 6.06171403 -2 9 C-2.20140476 5.37471432 -1.85776765 3.13498292 0 0 Z " fill="#3F26B3" transform="translate(423,372)"/>
<path d="M0 0 C0 3.69418201 -1.28179295 5.77836178 -3 9 C-3.66 9 -4.32 9 -5 9 C-3.90931332 5.22454612 -3.0916909 2.52956528 0 0 Z " fill="#1C1246" transform="translate(338,357)"/>
<path d="M0 0 C0.66 0.33 1.32 0.66 2 1 C1.04882866 2.1725131 0.08882991 3.33787015 -0.875 4.5 C-1.40867187 5.1496875 -1.94234375 5.799375 -2.4921875 6.46875 C-2.98976563 6.9740625 -3.48734375 7.479375 -4 8 C-4.66 8 -5.32 8 -6 8 C-4.55746343 4.63408134 -2.66735273 2.48952921 0 0 Z " fill="#150D32" transform="translate(362,328)"/>
<path d="M0 0 C1.32 0 2.64 0 4 0 C4 0.66 4 1.32 4 2 C4.66 2 5.32 2 6 2 C6.66 3.32 7.32 4.64 8 6 C6.02 5.34 4.04 4.68 2 4 C2 3.01 2 2.02 2 1 C1.34 0.67 0.68 0.34 0 0 Z " fill="#372664" transform="translate(282,213)"/>
<path d="M0 0 C0.62109375 1.796875 0.62109375 1.796875 1 4 C-0.9375 7.25 -0.9375 7.25 -3 10 C-3.33 9.34 -3.66 8.68 -4 8 C-3.22265625 6.0546875 -3.22265625 6.0546875 -2.0625 3.875 C-1.49208984 2.78832031 -1.49208984 2.78832031 -0.91015625 1.6796875 C-0.60980469 1.12539063 -0.30945313 0.57109375 0 0 Z " fill="#3D23C8" transform="translate(390,443)"/>
<path d="M0 0 C0.6875 1.8125 0.6875 1.8125 1 4 C-0.3125 5.75 -0.3125 5.75 -2 7 C-2.66 7 -3.32 7 -4 7 C-2.79618552 4.50638429 -1.54571278 2.31856917 0 0 Z " fill="#3A23A7" transform="translate(354,418)"/>
<path d="M0 0 C0.75 1.625 0.75 1.625 1 4 C-0.9375 7.25 -0.9375 7.25 -3 10 C-3 6.13304322 -1.58090029 3.4911548 0 0 Z " fill="#4329B5" transform="translate(378,376)"/>
</svg>
